<svg width="23" height="23" viewBox="0 0 23 23" fill="none" xmlns="http://www.w3.org/2000/svg">
<g clip-path="url(#clip0_6_121)">
<path fill-rule="evenodd" clip-rule="evenodd" d="M11.5 17.25C14.6756 17.25 17.25 14.6756 17.25 11.5C17.25 8.32436 14.6756 5.75 11.5 5.75C8.32436 5.75 5.75 8.32436 5.75 11.5C5.75 14.6756 8.32436 17.25 11.5 17.25ZM11.5 15.3333C13.6171 15.3333 15.3333 13.6171 15.3333 11.5C15.3333 9.38291 13.6171 7.66667 11.5 7.66667C9.38291 7.66667 7.66667 9.38291 7.66667 11.5C7.66667 13.6171 9.38291 15.3333 11.5 15.3333Z" fill="white"/>
<path d="M17.25 4.79169C16.7207 4.79169 16.2916 5.22075 16.2916 5.75002C16.2916 6.27929 16.7207 6.70835 17.25 6.70835C17.7792 6.70835 18.2083 6.27929 18.2083 5.75002C18.2083 5.22075 17.7792 4.79169 17.25 4.79169Z" fill="white"/>
<path fill-rule="evenodd" clip-rule="evenodd" d="M1.58509 4.09787C0.958374 5.32786 0.958374 6.93802 0.958374 10.1583V12.8416C0.958374 16.0619 0.958374 17.6721 1.58509 18.9021C2.13636 19.984 3.01599 20.8637 4.09793 21.4149C5.32792 22.0416 6.93808 22.0416 10.1584 22.0416H12.8417C16.062 22.0416 17.6722 22.0416 18.9021 21.4149C19.9841 20.8637 20.8637 19.984 21.415 18.9021C22.0417 17.6721 22.0417 16.0619 22.0417 12.8416V10.1583C22.0417 6.93802 22.0417 5.32786 21.415 4.09787C20.8637 3.01593 19.9841 2.1363 18.9021 1.58502C17.6722 0.958313 16.062 0.958313 12.8417 0.958313H10.1584C6.93808 0.958313 5.32792 0.958313 4.09793 1.58502C3.01599 2.1363 2.13636 3.01593 1.58509 4.09787ZM12.8417 2.87498H10.1584C8.5166 2.87498 7.40053 2.87647 6.53787 2.94695C5.69756 3.01561 5.26785 3.14005 4.96808 3.29278C4.24679 3.66031 3.66037 4.24673 3.29285 4.96802C3.14011 5.26779 3.01567 5.6975 2.94701 6.53781C2.87654 7.40047 2.87504 8.51654 2.87504 10.1583V12.8416C2.87504 14.4835 2.87654 15.5994 2.94701 16.4621C3.01567 17.3025 3.14011 17.7322 3.29285 18.032C3.66037 18.7532 4.24679 19.3396 4.96808 19.7071C5.26785 19.8599 5.69756 19.9844 6.53787 20.053C7.40053 20.1234 8.5166 20.125 10.1584 20.125H12.8417C14.4835 20.125 15.5995 20.1234 16.4622 20.053C17.3026 19.9844 17.7323 19.8599 18.032 19.7071C18.7533 19.3396 19.3397 18.7532 19.7072 18.032C19.86 17.7322 19.9845 17.3025 20.0531 16.4621C20.1235 15.5994 20.125 14.4835 20.125 12.8416V10.1583C20.125 8.51654 20.1235 7.40047 20.0531 6.53781C19.9845 5.6975 19.86 5.26779 19.7072 4.96802C19.3397 4.24673 18.7533 3.66031 18.032 3.29278C17.7323 3.14005 17.3026 3.01561 16.4622 2.94695C15.5995 2.87647 14.4835 2.87498 12.8417 2.87498Z" fill="white"/>
</g>
<defs>
<clipPath id="clip0_6_121">
<rect width="23" height="23" fill="white"/>
</clipPath>
</defs>
</svg>
