<svg width="23" height="23" viewBox="0 0 23 23" fill="none" xmlns="http://www.w3.org/2000/svg">
<g clip-path="url(#clip0_6_125)">
<path d="M5.76342 7.67254C5.87293 6.80647 6.99849 5.62938 7.89176 5.76L7.89033 5.75857C8.75966 5.92377 9.44782 7.42 9.83586 8.09279C10.1108 8.58094 9.93226 9.07551 9.67581 9.28421C9.32986 9.56305 8.78887 9.94779 8.90237 10.3341C9.10417 11.0208 11.5 13.4167 12.6784 14.0978C13.1244 14.3555 13.4478 13.6756 13.724 13.3273C13.9247 13.0593 14.4197 12.8992 14.9067 13.1637C15.6341 13.5873 16.3193 14.0795 16.9529 14.6337C17.2694 14.8983 17.3436 15.2892 17.1244 15.7023C16.7382 16.43 15.6211 17.3895 14.8103 17.1945C13.3941 16.854 7.66667 14.6337 5.82698 8.20143C5.72352 7.89713 5.74957 7.78209 5.76342 7.67254Z" fill="white"/>
<path fill-rule="evenodd" clip-rule="evenodd" d="M11.5 22.0416C10.3274 22.0416 9.67863 21.9158 8.62504 21.5625L6.6072 22.5714C5.3328 23.2086 3.83337 22.2819 3.83337 20.8571V18.6875C1.76965 16.7631 0.958374 14.5443 0.958374 11.5C0.958374 5.67798 5.67804 0.958313 11.5 0.958313C17.322 0.958313 22.0417 5.67798 22.0417 11.5C22.0417 17.322 17.322 22.0416 11.5 22.0416ZM5.75004 17.854L5.14049 17.2856C3.53712 15.7906 2.87504 14.1192 2.87504 11.5C2.87504 6.73653 6.73659 2.87498 11.5 2.87498C16.2635 2.87498 20.125 6.73653 20.125 11.5C20.125 16.2635 16.2635 20.125 11.5 20.125C10.5554 20.125 10.1124 20.0397 9.23449 19.7453L8.47982 19.4922L5.75004 20.8571V17.854Z" fill="white"/>
</g>
<defs>
<clipPath id="clip0_6_125">
<rect width="23" height="23" fill="white"/>
</clipPath>
</defs>
</svg>
